<svg xmlns="http://www.w3.org/2000/svg" viewBox="0 0 256 256" role="img" aria-labelledby="title desc">
  <title id="title">SchoolOS brand mark</title>
  <desc id="desc">A shield containing a graduation cap and open book, crowned by a gold star and framed by laurel branches.</desc>

  <defs>
    <linearGradient id="shieldBlue" x1="40" y1="24" x2="210" y2="226" gradientUnits="userSpaceOnUse">
      <stop offset="0" stop-color="#1D4ED8"/>
      <stop offset="1" stop-color="#3B82F6"/>
    </linearGradient>
    <linearGradient id="bookBlue" x1="78" y1="133" x2="178" y2="205" gradientUnits="userSpaceOnUse">
      <stop offset="0" stop-color="#0D1B2A"/>
      <stop offset="1" stop-color="#153B73"/>
    </linearGradient>
  </defs>

  <!-- Shield outer edge -->
  <path
    d="M128 22C104 45 79 52 48 62v54c0 58 31 96 80 122 49-26 80-64 80-122V62c-31-10-56-17-80-40Z"
    fill="#0D1B2A"
  />

  <!-- Shield blue border -->
  <path
    d="M128 31C106 51 82 59 58 67v49c0 51 27 85 70 109 43-24 70-58 70-109V67c-24-8-48-16-70-36Z"
    fill="url(#shieldBlue)"
  />

  <!-- Shield white field -->
  <path
    d="M128 43C108 60 89 66 68 73v43c0 43 22 72 60 95 38-23 60-52 60-95V73c-21-7-40-13-60-30Z"
    fill="#FFFFFF"
  />

  <!-- Star -->
  <path
    d="m128 39 6.2 12.5 13.8 2-10 9.8 2.4 13.7-12.4-6.5-12.4 6.5 2.4-13.7-10-9.8 13.8-2L128 39Z"
    fill="#F59E0B"
  />

  <!-- Graduation cap -->
  <path d="m82 104 46-22 46 22-46 22-46-22Z" fill="#0D1B2A"/>
  <path d="M99 114v17c17 12 41 12 58 0v-17l-29 14-29-14Z" fill="#153B73"/>
  <path d="M174 105v22" stroke="#0D1B2A" stroke-width="5" stroke-linecap="round"/>
  <circle cx="174" cy="130" r="4" fill="#F59E0B"/>

  <!-- Open book -->
  <path
    d="M78 138c21-5 37 3 50 15v53c-13-13-30-19-50-14v-54Z"
    fill="url(#bookBlue)"
  />
  <path
    d="M178 138c-21-5-37 3-50 15v53c13-13 30-19 50-14v-54Z"
    fill="#0D1B2A"
  />
  <path d="M128 153v53" stroke="#FFFFFF" stroke-width="4"/>

  <!-- Left laurel -->
  <g fill="#0D1B2A">
    <path d="M45 145c-11-7-15-17-13-28 10 5 16 14 13 28Z"/>
    <path d="M39 165c-13-4-20-12-21-23 12 2 20 10 21 23Z"/>
    <path d="M42 185c-14 0-23-6-28-16 12-2 23 4 28 16Z"/>
    <path d="M51 204c-13 4-24 1-31-8 11-5 23-2 31 8Z"/>
    <path d="M65 220c-11 7-22 7-32 1 9-8 21-8 32-1Z"/>
    <path d="M58 154c2-13 9-22 20-26 1 12-6 22-20 26Z"/>
    <path d="M56 176c5-13 13-20 25-21-2 12-10 20-25 21Z"/>
    <path d="M63 197c7-11 17-17 29-15-4 11-14 17-29 15Z"/>
  </g>

  <!-- Right laurel -->
  <g fill="#0D1B2A">
    <path d="M211 145c11-7 15-17 13-28-10 5-16 14-13 28Z"/>
    <path d="M217 165c13-4 20-12 21-23-12 2-20 10-21 23Z"/>
    <path d="M214 185c14 0 23-6 28-16-12-2-23 4-28 16Z"/>
    <path d="M205 204c13 4 24 1 31-8-11-5-23-2-31 8Z"/>
    <path d="M191 220c11 7 22 7 32 1-9-8-21-8-32-1Z"/>
    <path d="M198 154c-2-13-9-22-20-26-1 12 6 22 20 26Z"/>
    <path d="M200 176c-5-13-13-20-25-21 2 12 10 20 25 21Z"/>
    <path d="M193 197c-7-11-17-17-29-15 4 11 14 17 29 15Z"/>
  </g>
</svg>
